<?xml version="1.0"?>
<svg xmlns="http://www.w3.org/2000/svg" height="512px" viewBox="-22 0 512 512.00108" width="512px"><path d="m467.972656 128.214844c0-70.691406-57.523437-128.214844-128.226562-128.214844-64.769532 0-118.476563 48.28125-127.03125 110.738281-64.335938-17.164062-128.546875 26.621094-137.550782 91.46875h-12.335937c-34.636719 0-62.828125 28.179688-62.828125 62.828125 0 34.648438 28.191406 62.828125 62.828125 62.828125 260.660156 0 244.332031.035157 246.519531-.074219 42.238282-1.667968 76.378906-36.332031 76.378906-79.449218 0-.144532 0-.277344-.011718-.421875 48.0625-18.515625 82.257812-65.191407 82.257812-119.703125zm-161.761718 168.804687h-243.382813c-17.632813 0-31.984375-14.351562-31.984375-31.984375 0-17.640625 14.351562-31.984375 31.984375-31.984375h26.710937c8.523438 0 15.421876-6.910156 15.421876-15.421875v-.207031c.023437-55.390625 55.601562-93.96875 107.414062-74.464844 23.265625 8.75 41.804688 28.148438 48.765625 52.988281 2.625 9.347657 13.199219 14.140626 22.132813 9.4375 32.246093-17.261718 71.609374 6.214844 71.609374 42.957032 0 26.253906-20.910156 48.679687-48.671874 48.679687zm73.148437-79.851562c-15.453125-36.113281-55.417969-56.238281-94.347656-45.472657-9.179688-20.113281-24.160157-36.757812-42.523438-48.117187 2.425781-51.539063 45.125-92.734375 97.257813-92.734375 53.699218 0 97.382812 43.683594 97.382812 97.371094 0 39.59375-23.757812 73.746094-57.769531 88.953125zm0 0" fill="#FFFFFF"/><path d="m51.980469 409.113281c-7.871094-3.257812-16.890625.484375-20.148438 8.355469l-30.28125 73.210938c-3.257812 7.871093.484375 16.890624 8.351563 20.144531 7.875 3.257812 16.894531-.484375 20.148437-8.355469l30.285157-73.210938c3.253906-7.871093-.488282-16.890624-8.355469-20.144531zm0 0" fill="#FFFFFF"/><path d="m85.105469 369.375c3.253906-7.871094-.484375-16.890625-8.355469-20.144531-7.871094-3.257813-16.890625.484375-20.144531 8.355469l-5.59375 13.515624c-3.253907 7.871094.484375 16.890626 8.355469 20.148438 7.871093 3.253906 16.890624-.488281 20.144531-8.355469zm0 0" fill="#FFFFFF"/><path d="m108.195312 457.589844c-7.867187-3.257813-16.886718.484375-20.144531 8.355468l-10.230469 24.734376c-3.257812 7.871093.484376 16.890624 8.355469 20.144531 7.871094 3.257812 16.890625-.484375 20.144531-8.355469l10.230469-24.734375c3.257813-7.871094-.484375-16.890625-8.355469-20.144531zm0 0" fill="#FFFFFF"/><path d="m153.019531 349.230469c-7.867187-3.257813-16.890625.484375-20.144531 8.355469l-23.726562 57.355468c-3.253907 7.867188.488281 16.886719 8.355468 20.144532 7.871094 3.253906 16.890625-.488282 20.144532-8.355469l23.726562-57.355469c3.257812-7.871094-.484375-16.890625-8.355469-20.144531zm0 0" fill="#FFFFFF"/><path d="m208.25 409.113281c-7.871094-3.257812-16.886719.484375-20.144531 8.355469l-30.285157 73.210938c-3.253906 7.871093.484376 16.890624 8.355469 20.144531 7.871094 3.257812 16.890625-.484375 20.144531-8.355469l30.285157-73.210938c3.257812-7.871093-.484375-16.890624-8.355469-20.144531zm0 0" fill="#FFFFFF"/><path d="m241.375 369.375c3.257812-7.871094-.484375-16.890625-8.355469-20.144531-7.871093-3.257813-16.886719.484375-20.144531 8.355469l-5.589844 13.515624c-3.257812 7.871094.484375 16.890626 8.355469 20.148438 7.867187 3.253906 16.886719-.488281 20.144531-8.355469zm0 0" fill="#FFFFFF"/><path d="m264.46875 457.589844c-7.867188-3.257813-16.890625.484375-20.144531 8.355468l-10.234375 24.734376c-3.253906 7.871093.484375 16.890624 8.355468 20.144531 7.871094 3.257812 16.890626-.484375 20.144532-8.355469l10.234375-24.734375c3.253906-7.871094-.484375-16.890625-8.355469-20.144531zm0 0" fill="#FFFFFF"/><path d="m309.292969 349.230469c-7.871094-3.257813-16.890625.484375-20.144531 8.355469l-23.726563 57.355468c-3.253906 7.867188.484375 16.886719 8.355469 20.144532 7.871094 3.253906 16.890625-.488282 20.144531-8.355469l23.726563-57.355469c3.253906-7.871094-.488282-16.890625-8.355469-20.144531zm0 0" fill="#FFFFFF"/></svg>
